<svg width="40" height="41" viewBox="0 0 40 41" fill="none" xmlns="http://www.w3.org/2000/svg">
<path d="M37.7376 15.8876C38.552 15.8876 39.3665 15.6161 40 15.2541V37.9691C40 39.236 39.0045 40.2315 37.7376 40.2315H2.26244C0.995475 40.2315 0 39.236 0 37.9691V15.3446C0.633484 15.7066 1.44796 15.9781 2.26244 15.9781H37.7376V15.8876Z" fill="#525250"/>
<path d="M37.7376 13.3937H2.26244C0.995475 13.3937 0 12.3982 0 11.1312V2.26244C0 0.995475 0.995475 0 2.26244 0H37.7376C39.0045 0 40 0.995475 40 2.26244V11.1312C40 12.3982 39.0045 13.3937 37.7376 13.3937Z" fill="#525250"/>
</svg>
